<svg data-v-423bf9ae="" xmlns="http://www.w3.org/2000/svg" viewBox="0 0 115.94171809825644 60" class="font"><!----><!----><!----><g data-v-423bf9ae="" id="e7661ec9-b50c-4c38-bf5f-594d06953bd4" fill="#fff" transform="matrix(6.243495961422735,0,0,6.243495961422735,1.4984374229765365,-27.471382348849055)"><path d="M-0.04 14.01L-0.04 14.01Q-0.24 14.01-0.24 13.87L-0.24 13.87L-0.24 13.87Q-0.24 13.76-0.15 13.65L-0.15 13.65L7.04 4.75L5.14 4.75L5.14 4.75Q4.35 4.75 3.65 5.00L3.65 5.00L3.65 5.00Q2.95 5.25 2.44 6.10L2.44 6.10L2.11 6.59L2.11 6.59Q2.10 6.62 2.06 6.68L2.06 6.68L2.06 6.68Q2.02 6.73 1.95 6.73L1.95 6.73L1.95 6.73Q1.88 6.73 1.84 6.69L1.84 6.69L1.84 6.69Q1.81 6.65 1.83 6.59L1.83 6.59L2.44 4.58L2.44 4.58Q2.45 4.51 2.50 4.45L2.50 4.45L2.50 4.45Q2.55 4.40 2.62 4.40L2.62 4.40L8.27 4.40L8.27 4.40Q8.48 4.40 8.48 4.54L8.48 4.54L8.48 4.54Q8.48 4.61 8.40 4.75L8.40 4.75L1.26 13.62L3.23 13.62L3.23 13.62Q3.92 13.62 4.83 13.34L4.83 13.34L4.83 13.34Q5.74 13.06 6.33 12.12L6.33 12.12L6.65 11.62L6.65 11.62Q6.69 11.56 6.74 11.53L6.74 11.53L6.74 11.53Q6.79 11.49 6.86 11.49L6.86 11.49L6.86 11.49Q6.93 11.49 6.94 11.52L6.94 11.52L6.94 11.52Q6.94 11.55 6.92 11.62L6.92 11.62L6.40 13.65L6.40 13.65Q6.34 13.82 6.21 13.92L6.21 13.92L6.21 13.92Q6.08 14.01 5.95 14.01L5.95 14.01L-0.04 14.01ZM7.60 14.01L7.60 14.01Q7.46 14.01 7.46 13.87L7.46 13.87L7.46 13.87Q7.46 13.79 7.53 13.71L7.53 13.71L7.53 13.71Q7.59 13.62 7.69 13.62L7.69 13.62L8.26 13.62L8.26 13.62Q8.40 13.62 8.53 13.51L8.53 13.51L8.53 13.51Q8.65 13.40 8.68 13.24L8.68 13.24L10.56 5.19L10.56 5.11L10.56 5.11Q10.56 4.98 10.48 4.90L10.48 4.90L10.48 4.90Q10.40 4.82 10.29 4.82L10.29 4.82L9.72 4.82L9.72 4.82Q9.59 4.82 9.59 4.66L9.59 4.66L9.59 4.66Q9.59 4.56 9.65 4.49L9.65 4.49L9.65 4.49Q9.72 4.41 9.81 4.41L9.81 4.41L12.95 4.41L12.95 4.41Q13.10 4.41 13.10 4.56L13.10 4.56L13.10 4.56Q13.10 4.63 13.03 4.73L13.03 4.73L13.03 4.73Q12.95 4.82 12.87 4.82L12.87 4.82L12.29 4.82L12.29 4.82Q12.15 4.82 12.03 4.93L12.03 4.93L12.03 4.93Q11.90 5.04 11.87 5.19L11.87 5.19L11.02 8.90L14.90 8.90L15.76 5.19L15.76 5.11L15.76 5.11Q15.76 4.98 15.70 4.90L15.70 4.90L15.70 4.90Q15.64 4.82 15.53 4.82L15.53 4.82L14.94 4.82L14.94 4.82Q14.78 4.82 14.78 4.63L14.78 4.63L14.78 4.63Q14.78 4.55 14.86 4.48L14.86 4.48L14.86 4.48Q14.94 4.41 15.04 4.41L15.04 4.41L18.17 4.41L18.17 4.41Q18.26 4.41 18.29 4.45L18.29 4.45L18.29 4.45Q18.33 4.48 18.33 4.54L18.33 4.54L18.33 4.54Q18.33 4.63 18.26 4.73L18.26 4.73L18.26 4.73Q18.19 4.82 18.10 4.82L18.10 4.82L17.49 4.82L17.49 4.82Q17.35 4.82 17.23 4.93L17.23 4.93L17.23 4.93Q17.11 5.04 17.08 5.19L17.08 5.19L15.22 13.24L15.22 13.33L15.22 13.33Q15.22 13.45 15.28 13.54L15.28 13.54L15.28 13.54Q15.34 13.62 15.46 13.62L15.46 13.62L16.04 13.62L16.04 13.62Q16.10 13.62 16.14 13.66L16.14 13.66L16.14 13.66Q16.18 13.71 16.18 13.78L16.18 13.78L16.18 13.78Q16.18 13.87 16.11 13.94L16.11 13.94L16.11 13.94Q16.04 14.01 15.95 14.01L15.95 14.01L12.82 14.01L12.82 14.01Q12.68 14.01 12.68 13.87L12.68 13.87L12.68 13.87Q12.68 13.79 12.75 13.71L12.75 13.71L12.75 13.71Q12.81 13.62 12.91 13.62L12.91 13.62L13.50 13.62L13.50 13.62Q13.64 13.62 13.76 13.51L13.76 13.51L13.76 13.51Q13.87 13.40 13.90 13.24L13.90 13.24L14.81 9.24L10.93 9.24L10.00 13.24L10.00 13.33L10.00 13.33Q10.00 13.45 10.06 13.54L10.06 13.54L10.06 13.54Q10.12 13.62 10.25 13.62L10.25 13.62L10.84 13.62L10.84 13.62Q10.91 13.62 10.94 13.66L10.94 13.66L10.94 13.66Q10.98 13.71 10.98 13.75L10.98 13.75L10.98 13.75Q10.98 13.85 10.91 13.93L10.91 13.93L10.91 13.93Q10.85 14.01 10.75 14.01L10.75 14.01L7.60 14.01Z"></path></g><!----><!----></svg>